<svg xmlns="http://www.w3.org/2000/svg" viewBox="0 0 512 512">
  <!-- Fundo verde -->
  <rect width="512" height="512" rx="112" fill="#059669"/>
  <defs>
    <linearGradient id="grad" x1="0" y1="0" x2="1" y2="1">
      <stop offset="0%" stop-color="#064e3b" stop-opacity="0.5"/>
      <stop offset="100%" stop-color="#059669" stop-opacity="0"/>
    </linearGradient>
  </defs>
  <rect width="512" height="512" rx="112" fill="url(#grad)"/>

  <!-- Corpo do calendário -->
  <rect x="96" y="120" width="320" height="280" rx="32" fill="none" stroke="white" stroke-width="20"/>
  <!-- Cabeçalho -->
  <rect x="96" y="120" width="320" height="105" rx="32" fill="rgba(255,255,255,0.2)"/>
  <rect x="96" y="190" width="320" height="35" fill="rgba(255,255,255,0.2)"/>
  <line x1="96" y1="225" x2="416" y2="225" stroke="white" stroke-width="6" stroke-opacity="0.25"/>

  <!-- Pinos -->
  <rect x="166" y="78" width="34" height="86" rx="17" fill="white" fill-opacity="0.88"/>
  <rect x="312" y="78" width="34" height="86" rx="17" fill="white" fill-opacity="0.88"/>

  <!-- Grade - linha 1 -->
  <rect x="110" y="248" width="50" height="38" rx="8" fill="white" fill-opacity="0.32"/>
  <rect x="174" y="248" width="50" height="38" rx="8" fill="white"/>
  <rect x="238" y="248" width="50" height="38" rx="8" fill="white" fill-opacity="0.32"/>
  <rect x="302" y="248" width="50" height="38" rx="8" fill="white" fill-opacity="0.32"/>
  <rect x="352" y="248" width="60" height="38" rx="8" fill="white" fill-opacity="0.32"/>

  <!-- Grade - linha 2 -->
  <rect x="110" y="298" width="50" height="38" rx="8" fill="white" fill-opacity="0.32"/>
  <rect x="174" y="298" width="50" height="38" rx="8" fill="white" fill-opacity="0.32"/>
  <rect x="238" y="298" width="50" height="38" rx="8" fill="white" fill-opacity="0.32"/>
  <rect x="302" y="298" width="50" height="38" rx="8" fill="white" fill-opacity="0.32"/>
  <rect x="352" y="298" width="60" height="38" rx="8" fill="white" fill-opacity="0.32"/>

  <!-- Cursor -->
  <path d="M298 330 L298 428 L326 400 L350 452 L372 442 L348 390 L388 390 Z"
    fill="white" stroke="#064e3b" stroke-width="10" stroke-linejoin="round"/>
</svg>
